<svg aria-hidden="true" style="position:absolute;width:0;height:0;overflow:hidden"
  xmlns="http://www.w3.org/2000/svg">
  <defs>
    <symbol id="icon-menu" viewBox="0 0 30 32">
      <path stroke-linecap="round" stroke-width="1.882" d="M3.765 9.726h22.588M3.765 16h22.588M3.765 22.274h22.588"/>
    </symbol>
    <symbol id="icon-arrow-right" viewBox="0 0 31 32">
      <path fill="#97d28b" d="M15.515.485C24.084.485 31.03 7.431 31.03 16s-6.946 15.515-15.515 15.515S0 24.569 0 16 6.946.485 15.515.485z" style="fill:var(--color1, #97d28b)"/>
      <path fill="none" stroke="#173d33" stroke-linecap="round" stroke-linejoin="round" stroke-miterlimit="10" stroke-width=".97" d="M17.086 12.076 21.01 16l-3.924 3.924M10.02 16H20.9" style="stroke:var(--color2, #173d33)"/>
    </symbol>
    <symbol id="icon-mail" viewBox="0 0 32 32">
      <path stroke-linejoin="round" stroke-linecap="round" stroke-miterlimit="10" stroke-width="2" d="M22.667 27.333H9.334c-4 0-6.667-2-6.667-6.667v-9.333c0-4.667 2.667-6.667 6.667-6.667h13.333c4 0 6.667 2 6.667 6.667v9.333c0 4.667-2.667 6.667-6.667 6.667z"/>
      <path stroke-linejoin="round" stroke-linecap="round" stroke-miterlimit="10" stroke-width="2" d="m22.667 12-4.173 3.333c-1.373 1.093-3.627 1.093-5 0L9.334 12"/>
    </symbol>
    <symbol id="icon-arrow-left" viewBox="0 0 32 32">
      <path stroke-linejoin="round" stroke-linecap="round" stroke-miterlimit="10" stroke-width="1.333" d="m12.76 7.905-8.093 8.093 8.093 8.093M27.332 15.999H4.892"/>
    </symbol>
    <symbol id="icon-instagram" viewBox="0 0 32 32">
      <path stroke-linejoin="round" stroke-linecap="round" stroke-width="2" d="M12 29.333h8c6.667 0 9.333-2.667 9.333-9.333v-8c0-6.667-2.667-9.333-9.333-9.333h-8c-6.667 0-9.333 2.667-9.333 9.333v8c0 6.667 2.667 9.333 9.333 9.333z"/>
      <path stroke-linejoin="round" stroke-linecap="round" stroke-width="2" d="M16 20.667a4.667 4.667 0 1 0 0-9.334 4.667 4.667 0 0 0 0 9.334z"/>
      <path stroke-linejoin="round" stroke-linecap="round" stroke-width="2.667" d="M23.515 9.333h.015"/>
    </symbol>
    <symbol id="icon-facebook" viewBox="0 0 32 32">
      <path fill="var(--main-dark)" d="M18.667 12.4v3.867h3.467c.267 0 .4.267.4.533l-.533 2.533c0 .133-.267.267-.4.267h-2.933v9.733h-4v-9.6h-2.267c-.267 0-.4-.133-.4-.4V16.8c0-.267.133-.4.4-.4h2.267V12c0-2.267 1.733-4 4-4h3.6c.267 0 .4.133.4.4v3.2c0 .267-.133.4-.4.4h-3.2c-.267 0-.4.133-.4.4z"/>
      <path stroke-linejoin="round" stroke-linecap="round" stroke-width="2" d="M20 29.333h-8c-6.667 0-9.333-2.667-9.333-9.333v-8c0-6.667 2.667-9.333 9.333-9.333h8c6.667 0 9.333 2.667 9.333 9.333v8c0 6.667-2.667 9.333-9.333 9.333z"/>
    </symbol>
    <symbol id="arrow-rightup" viewBox="0 0 30 32">
      <path stroke-linejoin="round" stroke-linecap="round" stroke-miterlimit="10" stroke-width="1.882" d="M11.829 8.456h10.772v10.772M7.517 23.541 22.451 8.607"/>
    </symbol>
    <symbol id="icon-close" viewBox="0 0 32 32">
      <path fill="none" stroke="#fff" style="stroke:var(--color1, #fff)" stroke-linejoin="round" stroke-linecap="round" stroke-width="2.4" d="m9.334 9.333 13.333 13.333m-13.333.001L22.667 9.334"/>
    </symbol>
    <symbol id="icon-fav" viewBox="0 0 55 32">
      <path fill="#173d33" style="fill:var(--color2, #173d33)" d="M37.829 22.771c-.115-.273-9.56-18.774-9.715-19.029-.326-.772-.81-1.47-1.421-2.049S25.356.665 24.562.376a6.236 6.236 0 0 0-4.913.28 6.154 6.154 0 0 0-1.964 1.55c-.54.645-.939 1.392-1.174 2.197s-.299 1.647-.188 2.477c.11.83.392 1.628.828 2.345.115.273 9.155 17.981 9.31 18.236.115.274.251.539.405.793.326.772.81 1.47 1.421 2.049s1.336 1.028 2.131 1.317a6.24 6.24 0 0 0 4.913-.28 6.154 6.154 0 0 0 1.964-1.55c.54-.645.939-1.393 1.174-2.197s.299-1.647.188-2.477a6.04 6.04 0 0 0-.828-2.345z"/>
      <path fill="#97d28b" style="fill:var(--color3, #97d28b)" d="M26.921 10.252a6.04 6.04 0 0 0 .975-6.97c-.39-.742-.93-1.397-1.588-1.924S24.89.444 24.075.221c-.816-.223-1.669-.278-2.507-.161s-1.642.404-2.363.842a6.118 6.118 0 0 0-1.826 1.705c-.203.214-15.54 18.897-15.71 19.139-.579.61-1.025 1.331-1.309 2.119a6.022 6.022 0 0 0 .334 4.851 6.092 6.092 0 0 0 1.588 1.924c.657.527 1.418.914 2.233 1.137s1.669.278 2.507.161 1.642-.404 2.363-.842a6.13 6.13 0 0 0 1.826-1.705c.203-.214 15.54-18.897 15.71-19.138zM53.312 10.252c.579-.61 1.025-1.331 1.309-2.119a6.022 6.022 0 0 0-.335-4.851c-.39-.742-.93-1.397-1.588-1.924S51.28.444 50.465.221c-.816-.223-1.669-.278-2.507-.161s-1.642.404-2.363.842a6.118 6.118 0 0 0-1.826 1.705c-.203.214-15.54 18.897-15.71 19.139a6.04 6.04 0 0 0-.975 6.97c.39.742.931 1.397 1.588 1.924.657.527 1.418.914 2.233 1.137s1.669.278 2.507.161 1.642-.404 2.363-.842a6.118 6.118 0 0 0 1.826-1.705c.203-.214 15.54-18.897 15.71-19.139z"/>
    </symbol>
    <symbol id="icon-logo" viewBox="0 0 215 32">
      <path fill="#97d28b" style="fill:var(--color3, #97d28b)" d="M170.352 17.712c-.874 0-1.538-.275-1.992-.824s-.68-1.264-.68-2.144c0-.405.05-.781.152-1.128.106-.352.262-.667.464-.944.208-.283.486-.504.832-.664s.744-.24 1.192-.24c.614 0 1.114.144 1.504.432.39.283.656.693.8 1.232l-.728.152c-.24-.763-.762-1.144-1.568-1.144-.602 0-1.072.205-1.408.616s-.504.981-.504 1.712c0 .736.17 1.304.512 1.704.342.395.822.592 1.44.592.518 0 .92-.128 1.208-.384.294-.256.44-.565.44-.928v-.6h-1.592v-.608h2.288v1.088c0 .592-.206 1.088-.616 1.488-.41.395-.992.592-1.744.592zm3.399-.112v-5.712h2.096c.603 0 1.075.147 1.416.44.342.288.512.691.512 1.208 0 .416-.114.763-.344 1.04-.229.272-.554.451-.976.536l1.392 2.488h-.848l-1.264-2.384h-1.248V17.6h-.736zm.736-3.048h1.336c.379 0 .672-.085.88-.256.214-.171.32-.408.32-.712 0-.699-.405-1.048-1.216-1.048h-1.32v2.016zm4.327 3.048v-5.712h3.856v.648h-3.12v1.848h2.584v.648h-2.584v1.92h3.128v.648h-3.864zm4.836 0v-5.712h3.856v.648h-3.12v1.848h2.584v.648h-2.584v1.92h3.128v.648h-3.864zm4.836 0v-5.712h.888l2.624 3.912.432.688h.08l-.008-1.096v-3.504h.712V17.6h-.848l-2.536-3.752-.552-.848h-.072l.008 1.088V17.6h-.728z"/>
      <path fill="#173d33" style="fill:var(--color2, #173d33)" d="M194.597 17.6v-5.712h3.856v.648h-3.12v1.848h2.584v.648h-2.584v1.92h3.128v.648h-3.864zm4.836 0v-5.712h2.096c.602 0 1.074.147 1.416.44.342.288.512.691.512 1.208 0 .416-.114.763-.344 1.04-.23.272-.554.451-.976.536l1.392 2.488h-.848l-1.264-2.384h-1.248V17.6h-.736zm.736-3.048h1.336c.378 0 .672-.085.88-.256.214-.171.32-.408.32-.712 0-.699-.406-1.048-1.216-1.048h-1.32v2.016zm6.63 3.16c-.874 0-1.538-.275-1.992-.824s-.68-1.264-.68-2.144c0-.405.051-.781.152-1.128.107-.352.262-.667.464-.944.208-.283.486-.504.832-.664s.744-.24 1.192-.24c.614 0 1.115.144 1.504.432.39.283.656.693.8 1.232l-.728.152c-.24-.763-.762-1.144-1.568-1.144-.602 0-1.072.205-1.408.616s-.504.981-.504 1.712c0 .736.171 1.304.512 1.704.342.395.822.592 1.44.592.518 0 .92-.128 1.208-.384.294-.256.44-.565.44-.928v-.6h-1.592v-.608h2.288v1.088c0 .592-.205 1.088-.616 1.488-.41.395-.992.592-1.744.592zm4.707-.112v-2.024l-2.056-3.688h.856l1.56 2.968 1.568-2.968h.848l-2.04 3.688V17.6h-.736zm-43.458 7.2v-5.712h3.744v.648h-3.008v1.984h2.496v.656h-2.496V24.8h-.736zm6.797.112c-.848 0-1.512-.285-1.992-.856-.474-.571-.712-1.277-.712-2.12s.243-1.547.728-2.112c.491-.571 1.15-.856 1.976-.856s1.486.285 1.976.856c.491.571.736 1.275.736 2.112 0 .843-.24 1.549-.72 2.12-.474.571-1.138.856-1.992.856zm0-.656c.598 0 1.072-.211 1.424-.632.358-.421.536-.984.536-1.688 0-.699-.178-1.259-.536-1.68-.357-.432-.832-.648-1.424-.648-.581 0-1.053.216-1.416.648-.357.421-.536.981-.536 1.68 0 .704.176 1.267.528 1.688.358.421.832.632 1.424.632zm3.704.544v-5.712h2.096c.602 0 1.074.147 1.416.44.341.288.512.691.512 1.208 0 .416-.115.763-.344 1.04-.23.272-.555.451-.976.536l1.392 2.488h-.848l-1.264-2.384h-1.248V24.8h-.736zm.736-3.048h1.336c.378 0 .672-.085.88-.256.213-.171.32-.408.32-.712 0-.699-.406-1.048-1.216-1.048h-1.32v2.016zm6.163 3.048v-5.712h.736v5.056h3v.656h-3.736zm4.492 0v-5.712h.736V24.8h-.736zm2.118 0v-5.712h3.744v.648h-3.008v1.984h2.496v.656h-2.496V24.8h-.736zm4.555 0v-5.712h3.856v.648h-3.12v1.848h2.584v.648h-2.584v1.92h3.128v.648h-3.864zM35.788 25.143c-4.118 0-7.022-2.904-7.022-6.864s2.904-6.864 7.022-6.864 6.97 2.904 6.97 6.864v1.03H31.776c.396 2.086 1.98 3.221 4.013 3.221 1.531 0 2.64-.449 3.353-1.426h3.089c-1.003 2.455-3.379 4.039-6.442 4.039zm-3.934-8.237h7.894c-.502-1.901-2.059-2.878-3.96-2.878-1.954 0-3.432 1.003-3.934 2.878zm18.398 8.237c-4.118 0-7.022-2.904-7.022-6.864s2.904-6.864 7.022-6.864c3.511 0 6.098 2.112 6.758 5.148h-2.878c-.607-1.505-2.006-2.508-3.881-2.508-2.482 0-4.145 1.769-4.145 4.224s1.663 4.224 4.145 4.224c1.874 0 3.274-1.003 3.881-2.508h2.878c-.66 3.036-3.247 5.148-6.758 5.148zm14.258 0c-4.118 0-7.022-2.904-7.022-6.864s2.904-6.864 7.022-6.864 7.022 2.904 7.022 6.864-2.904 6.864-7.022 6.864zm0-2.64c2.482 0 4.118-1.769 4.118-4.224s-1.637-4.224-4.118-4.224c-2.482 0-4.145 1.769-4.145 4.224s1.663 4.224 4.145 4.224zm12.985 2.64c-3.3 0-5.386-1.769-5.465-4.171h2.878c.053.977.924 1.637 2.587 1.637 1.742 0 2.561-.739 2.561-1.637 0-1.109-1.241-1.241-2.772-1.452-2.112-.264-4.99-.66-4.99-3.749 0-2.614 2.033-4.356 5.174-4.356s5.095 1.795 5.148 4.066h-2.825c-.079-.898-.898-1.531-2.297-1.531-1.505 0-2.323.713-2.323 1.61 0 1.109 1.294 1.241 2.772 1.452 2.006.264 4.99.634 4.99 3.749 0 2.64-2.138 4.382-5.439 4.382zm12.979 0c-4.118 0-7.022-2.904-7.022-6.864s2.904-6.864 7.022-6.864 7.022 2.904 7.022 6.864-2.904 6.864-7.022 6.864zm0-2.64c2.482 0 4.118-1.769 4.118-4.224s-1.637-4.224-4.118-4.224c-2.482 0-4.145 1.769-4.145 4.224s1.663 4.224 4.145 4.224zm8.471 2.297V6.056h2.851V24.8h-2.851zm11.305.343c-3.854 0-6.442-2.218-6.442-6.6v-6.785h2.851v6.785c0 2.64 1.426 3.96 3.59 3.96s3.59-1.32 3.59-3.96v-6.785h2.851v6.785c0 4.356-2.587 6.6-6.442 6.6zm13.25 0c-3.142 0-5.28-1.742-5.28-5.333V7.138h2.851v4.62h6.943v2.587h-6.943v5.465c0 1.901.977 2.693 2.429 2.693s2.455-.766 2.455-2.693v-.317h2.825v.317c0 3.59-2.138 5.333-5.28 5.333zm8.172-15.233c-1.109 0-1.927-.845-1.927-1.954s.818-1.954 1.927-1.954 1.927.845 1.927 1.954-.818 1.954-1.927 1.954zM130.22 24.8V11.758h2.851V24.8h-2.851zm11.332.343c-4.118 0-7.022-2.904-7.022-6.864s2.904-6.864 7.022-6.864 7.022 2.904 7.022 6.864-2.904 6.864-7.022 6.864zm0-2.64c2.482 0 4.118-1.769 4.118-4.224s-1.637-4.224-4.118-4.224c-2.482 0-4.145 1.769-4.145 4.224s1.663 4.224 4.145 4.224zm8.022 2.297v-6.785c0-4.356 2.587-6.6 6.442-6.6s6.442 2.218 6.442 6.6V24.8h-2.851v-6.785c0-2.64-1.426-3.96-3.59-3.96s-3.59 1.32-3.59 3.96V24.8h-2.851zM17.064 21.447c-.052-.123-4.312-8.448-4.382-8.563-.147-.348-.365-.661-.641-.922a2.794 2.794 0 0 0-2.082-.758c-.381.022-.754.121-1.095.291s-.642.408-.886.698a2.712 2.712 0 0 0-.24 3.158c.052.123 4.13 8.092 4.2 8.206.052.123.113.242.183.357.147.348.365.661.641.922s.603.462.961.593a2.813 2.813 0 0 0 2.216-.126c.341-.17.642-.408.886-.698s.424-.627.53-.988a2.693 2.693 0 0 0-.289-2.17z"/>
      <path fill="#97d28b" style="fill:var(--color3, #97d28b)" d="M12.143 15.814c.261-.274.462-.599.591-.954a2.692 2.692 0 0 0-.151-2.183 2.757 2.757 0 0 0-1.723-1.378 2.802 2.802 0 0 0-3.021 1.074c-.092.096-7.01 8.504-7.086 8.612-.261.274-.462.599-.591.954a2.692 2.692 0 0 0 .151 2.183A2.757 2.757 0 0 0 2.036 25.5a2.82 2.82 0 0 0 2.197-.307c.325-.197.606-.458.824-.767.092-.096 7.01-8.504 7.086-8.612zM24.048 15.813c.261-.275.462-.599.591-.954a2.692 2.692 0 0 0-.151-2.183 2.757 2.757 0 0 0-1.723-1.378 2.802 2.802 0 0 0-3.021 1.074c-.092.096-7.01 8.504-7.086 8.612a2.732 2.732 0 0 0-.745 2.061c.026.376.13.742.306 1.076a2.757 2.757 0 0 0 1.723 1.378 2.802 2.802 0 0 0 3.021-1.074c.092-.096 7.01-8.504 7.086-8.612z"/>
    </symbol>
     <symbol id="icon-ranking" viewBox="0 0 32 32">
      <path stroke-linecap="round" stroke-linejoin="round" stroke-miterlimit="10" stroke-width="2" d="M11.56 18.667H5.333a2.675 2.675 0 0 0-2.667 2.667v8h8.893V18.667z"/>
      <path stroke-linecap="round" stroke-linejoin="round" stroke-miterlimit="10" stroke-width="2" d="M17.774 13.333h-3.56A2.675 2.675 0 0 0 11.547 16v13.333h8.893V16a2.666 2.666 0 0 0-2.667-2.667z"/>
      <path stroke-linecap="round" stroke-linejoin="round" stroke-miterlimit="10" stroke-width="2" d="M26.667 22.667H20.44v6.667h8.893v-4c0-1.467-1.2-2.667-2.667-2.667z"/>
      <path stroke-linecap="round" stroke-linejoin="round" stroke-width="2" d="m16.693 2.76.707 1.413c.093.2.347.387.56.413l1.28.213c.813.133 1.013.733.427 1.307l-1 1c-.173.173-.267.493-.213.72l.28 1.227c.227.973-.293 1.347-1.147.84l-1.2-.707a.826.826 0 0 0-.787 0l-1.2.707c-.853.507-1.373.133-1.147-.84l.28-1.227c.053-.227-.04-.56-.213-.72l-.987-.987c-.587-.587-.4-1.173.427-1.307l1.28-.213a.89.89 0 0 0 .56-.413l.707-1.413c.387-.773 1-.773 1.387-.013z"/>
    </symbol>
    <symbol id="icon-cpu-charge" viewBox="0 0 32 32">
      <path stroke-linecap="round" stroke-linejoin="round" stroke-width="2" d="M12.8 26.667h6.4c5.333 0 7.467-2.133 7.467-7.467v-6.4c0-5.333-2.133-7.467-7.467-7.467h-6.4c-5.333 0-7.467 2.133-7.467 7.467v6.4c0 5.333 2.133 7.467 7.467 7.467z"/>
      <path stroke-linecap="round" stroke-linejoin="round" stroke-width="2" d="M14 22.667h4c3.333 0 4.667-1.333 4.667-4.667v-4c0-3.333-1.333-4.667-4.667-4.667h-4c-3.333 0-4.667 1.333-4.667 4.667v4c0 3.333 1.333 4.667 4.667 4.667zM10.68 5.333V2.666M16 5.333V2.666M21.333 5.333V2.666M26.667 10.667h2.667M26.667 16h2.667M26.667 21.333h2.667M21.333 26.667v2.667M16.013 26.667v2.667M10.68 26.667v2.667M2.667 10.667h2.667M2.667 16h2.667M2.667 21.333h2.667"/>
      <path stroke-linecap="round" stroke-linejoin="round" stroke-width="2" d="m16 12.933-1.253 2.187c-.28.48-.053.88.507.88h1.493c.56 0 .787.4.507.88l-1.253 2.187"/>
    </symbol>
    <symbol id="icon-global-edit" viewBox="0 0 32 32">
      <path stroke-linecap="round" stroke-linejoin="round" stroke-width="2" d="M29.333 16C29.333 8.64 23.36 2.667 16 2.667S2.667 8.64 2.667 16 8.64 29.333 16 29.333"/>
      <path stroke-linecap="round" stroke-linejoin="round" stroke-width="2" d="M10.666 4h1.333a37.898 37.898 0 0 0 0 24h-1.333M20 4a38.083 38.083 0 0 1 1.947 12"/>
      <path stroke-linecap="round" stroke-linejoin="round" stroke-width="2" d="M4 21.333V20a38.083 38.083 0 0 0 12 1.947M4 12a37.898 37.898 0 0 1 24 0"/>
      <path stroke-linecap="round" stroke-linejoin="round" stroke-miterlimit="10" stroke-width="2" d="m25.614 20.987-4.72 4.72a1.64 1.64 0 0 0-.4.787l-.253 1.8c-.093.653.36 1.107 1.013 1.013l1.8-.253c.253-.04.613-.213.787-.4l4.72-4.72c.813-.813 1.2-1.76 0-2.96-1.187-1.187-2.133-.8-2.947.013z"/>
      <path stroke-linecap="round" stroke-linejoin="round" stroke-miterlimit="10" stroke-width="2" d="M24.934 21.667c.4 1.44 1.52 2.56 2.96 2.96"/>
    </symbol>
    <symbol id="icon-maximize-circle" viewBox="0 0 32 32">
      <path stroke-linecap="round" stroke-linejoin="round" stroke-width="2" d="M22.667 4H28v5.333M20 12l8-8M9.333 28H4v-5.333M12 20l-8 8M18.693 2.933A13.794 13.794 0 0 0 16 2.666c-7.36 0-13.333 5.973-13.333 13.333 0 .92.093 1.813.267 2.667M13.307 29.067c.867.173 1.773.267 2.693.267 7.36 0 13.333-5.973 13.333-13.333 0-.907-.093-1.8-.267-2.667"/>
    </symbol>
     <symbol id="icon-arrow-up-right" viewBox="0 0 32 32">
      <path fill="#97d28b" d="M16 0c8.837 0 16 7.163 16 16s-7.163 16-16 16S0 24.837 0 16 7.163 0 16 0z" style="fill:var(--color1, #97d28b)"/>
      <path fill="none" stroke="#173d33" stroke-linecap="round" stroke-linejoin="round" stroke-miterlimit="10" stroke-width=".8" d="M14.399 12.26h5.341v5.341M12.261 19.739l7.405-7.405" style="stroke:var(--color2, #173d33)"/>
    </symbol>
    <symbol id="icon-next" viewBox="0 0 32 32">
      <path stroke-width=".485" d="M16 .242C24.703.242 31.758 7.297 31.758 16S24.703 31.758 16 31.758.242 24.703.242 16 7.297.242 16 .242z"/>
      <path stroke-linecap="round" stroke-linejoin="round" stroke-miterlimit="10" stroke-width=".727" d="M17.768 11.585 22.183 16l-4.415 4.415M9.819 15.999h12.24"/>
    </symbol>
    <symbol id="icon-prev" viewBox="0 0 32 32">
      <path stroke-width=".485" d="M16 .242C7.297.242.242 7.297.242 16S7.297 31.758 16 31.758 31.758 24.703 31.758 16 24.703.242 16 .242z"/>
      <path stroke-linecap="round" stroke-linejoin="round" stroke-miterlimit="10" stroke-width=".727" d="M14.232 11.585 9.817 16l4.415 4.415M22.181 15.999H9.941"/>
    </symbol>
     <symbol id="icon-add" viewBox="0 0 32 32">
      <path fill="none" stroke="#97d28b" stroke-linecap="round" stroke-linejoin="round" stroke-width="3" d="M8 16h16M16 24V8" style="stroke:var(--color1, #97d28b)"/>
    </symbol>
    <symbol id="icon-minus" viewBox="0 0 32 32">
      <path fill="none" stroke="#173d33" stroke-linecap="round" stroke-linejoin="round" stroke-width="3" d="M8 16h16"/>
    </symbol>
     <symbol id="icon-map" viewBox="0 0 32 32">
      <path stroke-linecap="round" stroke-linejoin="round" stroke-width="2" d="M3.053 10.373v12.973c0 2.533 1.8 3.573 3.987 2.32l3.133-1.787c.68-.387 1.813-.427 2.52-.067l7 3.507c.707.347 1.84.32 2.52-.067l5.773-3.307c.733-.427 1.347-1.467 1.347-2.32V8.652c0-2.533-1.8-3.573-3.987-2.32l-3.133 1.787c-.68.387-1.813.427-2.52.067l-7-3.493c-.707-.347-1.84-.32-2.52.067L4.4 8.067c-.747.427-1.347 1.467-1.347 2.307zM11.413 5.333v17.333M20.973 8.826v17.84"/>
    </symbol>
    <symbol id="icon-call" viewBox="0 0 32 32">
      <path stroke-miterlimit="10" stroke-width="2" d="M29.293 24.44c0 .48-.107.973-.333 1.453s-.52.933-.907 1.36c-.653.72-1.373 1.24-2.187 1.573-.8.333-1.667.507-2.6.507-1.36 0-2.813-.32-4.347-.973s-3.067-1.533-4.587-2.64a38.332 38.332 0 0 1-4.373-3.733 37.98 37.98 0 0 1-3.72-4.36c-1.093-1.52-1.973-3.04-2.613-4.547-.64-1.52-.96-2.973-.96-4.36 0-.907.16-1.773.48-2.573.32-.813.827-1.56 1.533-2.227.853-.84 1.787-1.253 2.773-1.253.373 0 .747.08 1.08.24.347.16.653.4.893.747l3.093 4.36c.24.333.413.64.533.933.12.28.187.56.187.813 0 .32-.093.64-.28.947a4.52 4.52 0 0 1-.747.947l-1.013 1.053a.712.712 0 0 0-.213.533c0 .107.013.2.04.307.04.107.08.187.107.267.24.44.653 1.013 1.24 1.707.6.693 1.24 1.4 1.933 2.107.72.707 1.413 1.36 2.12 1.96.693.587 1.267.987 1.72 1.227.067.027.147.067.24.107a.92.92 0 0 0 .333.053c.227 0 .4-.08.547-.227l1.013-1c.333-.333.653-.587.96-.747.307-.187.613-.28.947-.28.253 0 .52.053.813.173s.6.293.933.52l4.413 3.133c.347.24.587.52.733.853.133.333.213.667.213 1.04z"/>
    </symbol>
  </defs>
</svg>
